<?xml version="1.0" encoding="UTF-8"?>
<svg xmlns="http://www.w3.org/2000/svg" width="242" height="72" viewBox="0 0 242 72" fill="none">
  <g clip-path="url(#clip0_122_21)">
    <path d="M22.3334 5.99219C12.0485 5.99219 3.72266 14.342 3.72266 24.5581C3.72266 34.7743 12.0485 43.2223 22.3334 43.2223C32.6183 43.2223 40.8462 34.8726 40.8462 24.5581C40.8462 14.2437 32.5204 5.99219 22.3334 5.99219ZM10.4813 16.6995L16.6522 22.8882H8.22842C8.52227 20.5306 9.30589 18.4677 10.4813 16.6995ZM8.32637 27.2104H16.2604L14.3994 29.0768L10.6772 32.8097C9.50179 31.1397 8.71818 29.2733 8.32637 27.2104ZM19.6887 38.6054C17.4359 38.2125 15.3789 37.2301 13.7137 35.9531L14.3014 35.3637L18.5133 31.1397L19.4928 30.1574L19.6887 29.9609V38.6054ZM19.6887 19.7447L13.4198 13.4579C15.183 12.0826 17.3379 11.002 19.6887 10.6091V19.7447ZM24.0965 10.5109C30.4634 11.2967 35.5569 16.4048 36.4384 22.8882H24.0965V10.5109ZM24.0965 38.7036V30.2556L30.2675 36.4443C28.4064 37.6231 26.3494 38.4089 24.0965 38.7036ZM33.4019 33.3991L27.133 27.1122H36.2425C35.8507 29.4698 34.7732 31.6309 33.4019 33.3991Z" fill="url(#paint0_linear_122_21)"></path>
    <path d="M22.3329 2.25977C9.99104 2.25977 0 12.2795 0 24.5586C0 36.8376 9.99104 46.9556 22.3329 46.9556C34.5768 46.9556 44.6658 36.9359 44.6658 24.5586C44.5679 12.2795 34.5768 2.25977 22.3329 2.25977ZM22.3329 44.598C11.2644 44.598 2.35083 35.6588 2.35083 24.5586C2.35083 13.5565 11.3624 4.51911 22.3329 4.51911C33.3035 4.51911 42.315 13.5565 42.315 24.5586C42.315 35.6588 33.3035 44.598 22.3329 44.598Z" fill="url(#paint1_linear_122_21)"></path>
    <path d="M51.5234 45.5797V1.86621H68.7629C71.6035 1.86621 74.1502 2.35737 76.4031 3.3397C78.656 4.32202 80.5171 5.79551 81.8884 7.8584C83.2597 9.92128 83.9454 12.4753 83.9454 15.6188C83.9454 18.7622 83.2597 21.4145 81.8884 23.4774C80.5171 25.6385 78.7539 27.2102 76.4031 28.2908C74.1502 29.3713 71.5055 29.9607 68.7629 29.9607H63.1797V45.5797H51.5234ZM63.1797 20.8251H64.9428C66.0203 20.8251 66.9998 20.7269 68.0772 20.4322C69.1547 20.2357 69.9383 19.7445 70.624 19.0569C71.3096 18.3693 71.7014 17.387 71.7014 16.0117C71.7014 14.6364 71.3096 13.5559 70.624 12.8683C69.9383 12.1806 69.0567 11.6895 68.0772 11.493C66.9998 11.2965 66.0203 11.1001 64.9428 11.1001H63.1797V20.8251Z" fill="url(#paint2_linear_122_21)"></path>
    <path d="M97.1702 45.5796C94.3296 45.5796 91.7828 44.9902 89.5299 43.7132C87.2771 42.4361 85.5139 40.7662 84.1426 38.6051C82.8693 36.444 82.1836 33.9881 82.1836 31.1394C82.1836 28.2907 82.8693 25.8348 84.1426 23.6737C85.416 21.5126 87.2771 19.8427 89.5299 18.5656C91.7828 17.2886 94.3296 16.6992 97.1702 16.6992C100.011 16.6992 102.557 17.2886 104.81 18.5656C107.063 19.8427 108.826 21.5126 110.198 23.6737C111.471 25.8348 112.157 28.2907 112.157 31.1394C112.157 33.9881 111.471 36.444 110.198 38.6051C108.924 40.7662 107.063 42.4361 104.81 43.7132C102.557 44.9902 100.011 45.5796 97.1702 45.5796ZM97.1702 36.2475C97.9538 36.2475 98.7374 36.051 99.423 35.5599C100.109 35.0687 100.696 34.5775 101.088 33.7917C101.48 33.0058 101.676 32.1217 101.676 31.1394C101.676 30.1571 101.48 29.273 101.088 28.4871C100.696 27.7013 100.109 27.1119 99.423 26.7189C98.7374 26.326 97.9538 26.1295 97.1702 26.1295C96.3865 26.1295 95.6029 26.326 94.9173 26.7189C94.2316 27.1119 93.6439 27.7013 93.2521 28.4871C92.8603 29.273 92.6644 30.1571 92.6644 31.1394C92.6644 32.1217 92.8603 33.0058 93.2521 33.7917C93.6439 34.5775 94.2316 35.1669 94.9173 35.5599C95.6029 35.9528 96.3865 36.2475 97.1702 36.2475Z" fill="url(#paint3_linear_122_21)"></path>
    <path d="M226.662 45.5796C223.822 45.5796 221.275 44.9902 219.022 43.7132C216.769 42.4361 215.006 40.7662 213.635 38.6051C212.361 36.444 211.676 33.9881 211.676 31.1394C211.676 28.2907 212.361 25.8348 213.635 23.6737C214.908 21.5126 216.769 19.8427 219.022 18.5656C221.275 17.2886 223.822 16.6992 226.662 16.6992C229.503 16.6992 232.05 17.2886 234.303 18.5656C236.555 19.8427 238.319 21.5126 239.69 23.6737C240.963 25.8348 241.649 28.2907 241.649 31.1394C241.649 33.9881 240.963 36.444 239.69 38.6051C238.417 40.7662 236.555 42.4361 234.303 43.7132C231.952 44.9902 229.503 45.5796 226.662 45.5796ZM226.662 36.2475C227.446 36.2475 228.23 36.051 228.915 35.5599C229.601 35.1669 230.189 34.5775 230.58 33.7917C230.972 33.0058 231.168 32.1217 231.168 31.1394C231.168 30.1571 230.972 29.273 230.58 28.4871C230.189 27.7013 229.601 27.1119 228.915 26.7189C228.23 26.326 227.446 26.1295 226.662 26.1295C225.879 26.1295 225.095 26.326 224.409 26.7189C223.724 27.1119 223.136 27.7013 222.744 28.4871C222.352 29.273 222.157 30.1571 222.157 31.1394C222.157 32.1217 222.352 33.0058 222.744 33.7917C223.136 34.5775 223.724 35.1669 224.409 35.5599C225.095 36.051 225.879 36.2475 226.662 36.2475Z" fill="url(#paint4_linear_122_21)"></path>
    <path d="M115.289 45.5803V18.4681H126.26V21.0221C127.827 19.7451 129.198 18.861 130.374 18.3698C131.549 17.8787 132.822 17.584 134.194 17.584C136.153 17.584 138.014 17.9769 139.679 18.861C141.344 19.7451 142.618 20.9239 143.401 22.2991C144.87 20.6292 146.34 19.4504 147.809 18.6645C149.278 17.8787 150.845 17.584 152.609 17.584C154.568 17.584 156.331 17.9769 157.898 18.861C159.465 19.6469 160.641 20.8257 161.522 22.2991C162.404 23.7726 162.795 25.5408 162.795 27.4072V45.5803H151.825V30.4524C151.825 29.1754 151.531 28.1931 150.845 27.4072C150.16 26.7196 149.278 26.3267 148.103 26.3267C147.319 26.3267 146.731 26.4249 146.144 26.7196C145.654 27.0143 145.164 27.4072 144.87 27.9966C144.577 28.586 144.479 29.1754 144.479 29.9613V45.5803H133.508V30.4524C133.508 29.2737 133.214 28.2913 132.529 27.5055C131.941 26.7196 130.961 26.4249 129.786 26.4249C129.002 26.4249 128.415 26.6214 127.827 26.9161C127.337 27.2108 126.847 27.7019 126.553 28.2913C126.26 28.8807 126.162 29.6666 126.162 30.4524V45.6785H115.289V45.5803Z" fill="url(#paint5_linear_122_21)"></path>
    <path d="M181.309 45.5796C178.273 45.5796 175.628 44.9902 173.277 43.7132C170.926 42.4361 168.967 40.668 167.596 38.5068C166.225 36.3457 165.539 33.8899 165.539 31.1394C165.539 29.0765 165.931 27.2101 166.714 25.4419C167.498 23.6737 168.576 22.2002 170.045 20.825C171.416 19.548 173.081 18.4674 175.04 17.7798C176.901 17.0921 178.958 16.6992 181.211 16.6992C184.052 16.6992 186.501 17.2886 188.656 18.4674C190.811 19.6462 192.476 21.3161 193.651 23.379C194.827 25.4419 195.414 27.8977 195.414 30.6482C195.414 30.8447 195.414 31.1394 195.414 31.3359C195.414 31.5323 195.414 32.0235 195.316 32.7111H176.999C176.999 33.5952 177.195 34.2828 177.587 34.9705C177.979 35.5599 178.567 36.051 179.35 36.444C180.134 36.7387 181.015 36.9351 182.093 36.9351C183.072 36.9351 183.954 36.7387 184.64 36.444C185.325 36.051 186.207 35.4616 187.186 34.5775L195.022 38.5068C193.749 40.7662 191.888 42.5344 189.537 43.8114C186.99 44.9902 184.346 45.5796 181.309 45.5796ZM177.195 27.5048H184.64C184.542 26.8172 184.346 26.2278 184.052 25.7366C183.758 25.2455 183.366 24.9508 182.779 24.6561C182.289 24.4596 181.603 24.2631 180.917 24.2631C180.134 24.2631 179.448 24.3614 178.958 24.6561C178.469 24.9508 177.979 25.2455 177.685 25.7366C177.391 26.2278 177.195 26.8172 177.195 27.5048Z" fill="url(#paint6_linear_122_21)"></path>
    <path d="M198.449 45.5799V0H209.42V45.5799H198.449Z" fill="url(#paint7_linear_122_21)"></path>
    <path d="M22.3334 5.99219C12.0485 5.99219 3.72266 14.342 3.72266 24.5581C3.72266 34.7743 12.0485 43.2223 22.3334 43.2223C32.6183 43.2223 40.8462 34.8726 40.8462 24.5581C40.8462 14.2437 32.5204 5.99219 22.3334 5.99219ZM10.4813 16.6995L16.6522 22.8882H8.22842C8.52227 20.5306 9.30589 18.4677 10.4813 16.6995ZM8.32637 27.2104H16.2604L14.3994 29.0768L10.6772 32.8097C9.50179 31.1397 8.71818 29.2733 8.32637 27.2104ZM19.6887 38.6054C17.4359 38.2125 15.3789 37.2301 13.7137 35.9531L14.3014 35.3637L18.5133 31.1397L19.4928 30.1574L19.6887 29.9609V38.6054ZM19.6887 19.7447L13.4198 13.4579C15.183 12.0826 17.3379 11.002 19.6887 10.6091V19.7447ZM24.0965 10.5109C30.4634 11.2967 35.5569 16.4048 36.4384 22.8882H24.0965V10.5109ZM24.0965 38.7036V30.2556L30.2675 36.4443C28.4064 37.6231 26.3494 38.4089 24.0965 38.7036ZM33.4019 33.3991L27.133 27.1122H36.2425C35.8507 29.4698 34.7732 31.6309 33.4019 33.3991Z" fill="url(#paint8_linear_122_21)"></path>
    <path d="M22.3329 2.25977C9.99104 2.25977 0 12.2795 0 24.5586C0 36.8376 9.99104 46.9556 22.3329 46.9556C34.5768 46.9556 44.6658 36.9359 44.6658 24.5586C44.5679 12.2795 34.5768 2.25977 22.3329 2.25977ZM22.3329 44.598C11.2644 44.598 2.35083 35.6588 2.35083 24.5586C2.35083 13.5565 11.3624 4.51911 22.3329 4.51911C33.3035 4.51911 42.315 13.5565 42.315 24.5586C42.315 35.6588 33.3035 44.598 22.3329 44.598Z" fill="url(#paint9_linear_122_21)"></path>
    <path d="M22.3334 5.99219C12.0485 5.99219 3.72266 14.342 3.72266 24.5581C3.72266 34.7743 12.0485 43.2223 22.3334 43.2223C32.6183 43.2223 40.8462 34.8726 40.8462 24.5581C40.8462 14.2437 32.5204 5.99219 22.3334 5.99219ZM10.4813 16.6995L16.6522 22.8882H8.22842C8.52227 20.5306 9.30589 18.4677 10.4813 16.6995ZM8.32637 27.2104H16.2604L14.3994 29.0768L10.6772 32.8097C9.50179 31.1397 8.71818 29.2733 8.32637 27.2104ZM19.6887 38.6054C17.4359 38.2125 15.3789 37.2301 13.7137 35.9531L14.3014 35.3637L18.5133 31.1397L19.4928 30.1574L19.6887 29.9609V38.6054ZM19.6887 19.7447L13.4198 13.4579C15.183 12.0826 17.3379 11.002 19.6887 10.6091V19.7447ZM24.0965 10.5109C30.4634 11.2967 35.5569 16.4048 36.4384 22.8882H24.0965V10.5109ZM24.0965 38.7036V30.2556L30.2675 36.4443C28.4064 37.6231 26.3494 38.4089 24.0965 38.7036ZM33.4019 33.3991L27.133 27.1122H36.2425C35.8507 29.4698 34.7732 31.6309 33.4019 33.3991Z" fill="url(#paint10_linear_122_21)"></path>
    <path d="M22.3329 2.25977C9.99104 2.25977 0 12.2795 0 24.5586C0 36.8376 9.99104 46.9556 22.3329 46.9556C34.5768 46.9556 44.6658 36.9359 44.6658 24.5586C44.5679 12.2795 34.5768 2.25977 22.3329 2.25977ZM22.3329 44.598C11.2644 44.598 2.35083 35.6588 2.35083 24.5586C2.35083 13.5565 11.3624 4.51911 22.3329 4.51911C33.3035 4.51911 42.315 13.5565 42.315 24.5586C42.315 35.6588 33.3035 44.598 22.3329 44.598Z" fill="url(#paint11_linear_122_21)"></path>
    <path d="M22.3334 5.99219C12.0485 5.99219 3.72266 14.342 3.72266 24.5581C3.72266 34.7743 12.0485 43.2223 22.3334 43.2223C32.6183 43.2223 40.8462 34.8726 40.8462 24.5581C40.8462 14.2437 32.5204 5.99219 22.3334 5.99219ZM10.4813 16.6995L16.6522 22.8882H8.22842C8.52227 20.5306 9.30589 18.4677 10.4813 16.6995ZM8.32637 27.2104H16.2604L14.3994 29.0768L10.6772 32.8097C9.50179 31.1397 8.71818 29.2733 8.32637 27.2104ZM19.6887 38.6054C17.4359 38.2125 15.3789 37.2301 13.7137 35.9531L14.3014 35.3637L18.5133 31.1397L19.4928 30.1574L19.6887 29.9609V38.6054ZM19.6887 19.7447L13.4198 13.4579C15.183 12.0826 17.3379 11.002 19.6887 10.6091V19.7447ZM24.0965 10.5109C30.4634 11.2967 35.5569 16.4048 36.4384 22.8882H24.0965V10.5109ZM24.0965 38.7036V30.2556L30.2675 36.4443C28.4064 37.6231 26.3494 38.4089 24.0965 38.7036ZM33.4019 33.3991L27.133 27.1122H36.2425C35.8507 29.4698 34.7732 31.6309 33.4019 33.3991Z" fill="url(#paint12_linear_122_21)"></path>
    <path d="M22.3329 2.25977C9.99104 2.25977 0 12.2795 0 24.5586C0 36.8376 9.99104 46.9556 22.3329 46.9556C34.5768 46.9556 44.6658 36.9359 44.6658 24.5586C44.5679 12.2795 34.5768 2.25977 22.3329 2.25977ZM22.3329 44.598C11.2644 44.598 2.35083 35.6588 2.35083 24.5586C2.35083 13.5565 11.3624 4.51911 22.3329 4.51911C33.3035 4.51911 42.315 13.5565 42.315 24.5586C42.315 35.6588 33.3035 44.598 22.3329 44.598Z" fill="url(#paint13_linear_122_21)"></path>
    <path d="M51.5234 45.5797V1.86621H68.7629C71.6035 1.86621 74.1502 2.35737 76.4031 3.3397C78.656 4.32202 80.5171 5.79551 81.8884 7.8584C83.2597 9.92128 83.9454 12.4753 83.9454 15.6188C83.9454 18.7622 83.2597 21.4145 81.8884 23.4774C80.5171 25.6385 78.7539 27.2102 76.4031 28.2908C74.1502 29.3713 71.5055 29.9607 68.7629 29.9607H63.1797V45.5797H51.5234ZM63.1797 20.8251H64.9428C66.0203 20.8251 66.9998 20.7269 68.0772 20.4322C69.1547 20.2357 69.9383 19.7445 70.624 19.0569C71.3096 18.3693 71.7014 17.387 71.7014 16.0117C71.7014 14.6364 71.3096 13.5559 70.624 12.8683C69.9383 12.1806 69.0567 11.6895 68.0772 11.493C66.9998 11.2965 66.0203 11.1001 64.9428 11.1001H63.1797V20.8251Z" fill="url(#paint14_linear_122_21)"></path>
    <path d="M97.1702 45.5796C94.3296 45.5796 91.7828 44.9902 89.5299 43.7132C87.2771 42.4361 85.5139 40.7662 84.1426 38.6051C82.8693 36.444 82.1836 33.9881 82.1836 31.1394C82.1836 28.2907 82.8693 25.8348 84.1426 23.6737C85.416 21.5126 87.2771 19.8427 89.5299 18.5656C91.7828 17.2886 94.3296 16.6992 97.1702 16.6992C100.011 16.6992 102.557 17.2886 104.81 18.5656C107.063 19.8427 108.826 21.5126 110.198 23.6737C111.471 25.8348 112.157 28.2907 112.157 31.1394C112.157 33.9881 111.471 36.444 110.198 38.6051C108.924 40.7662 107.063 42.4361 104.81 43.7132C102.557 44.9902 100.011 45.5796 97.1702 45.5796ZM97.1702 36.2475C97.9538 36.2475 98.7374 36.051 99.423 35.5599C100.109 35.0687 100.696 34.5775 101.088 33.7917C101.48 33.0058 101.676 32.1217 101.676 31.1394C101.676 30.1571 101.48 29.273 101.088 28.4871C100.696 27.7013 100.109 27.1119 99.423 26.7189C98.7374 26.326 97.9538 26.1295 97.1702 26.1295C96.3865 26.1295 95.6029 26.326 94.9173 26.7189C94.2316 27.1119 93.6439 27.7013 93.2521 28.4871C92.8603 29.273 92.6644 30.1571 92.6644 31.1394C92.6644 32.1217 92.8603 33.0058 93.2521 33.7917C93.6439 34.5775 94.2316 35.1669 94.9173 35.5599C95.6029 35.9528 96.3865 36.2475 97.1702 36.2475Z" fill="url(#paint15_linear_122_21)"></path>
    <path d="M226.662 45.5796C223.822 45.5796 221.275 44.9902 219.022 43.7132C216.769 42.4361 215.006 40.7662 213.635 38.6051C212.361 36.444 211.676 33.9881 211.676 31.1394C211.676 28.2907 212.361 25.8348 213.635 23.6737C214.908 21.5126 216.769 19.8427 219.022 18.5656C221.275 17.2886 223.822 16.6992 226.662 16.6992C229.503 16.6992 232.05 17.2886 234.303 18.5656C236.555 19.8427 238.319 21.5126 239.69 23.6737C240.963 25.8348 241.649 28.2907 241.649 31.1394C241.649 33.9881 240.963 36.444 239.69 38.6051C238.417 40.7662 236.555 42.4361 234.303 43.7132C231.952 44.9902 229.503 45.5796 226.662 45.5796ZM226.662 36.2475C227.446 36.2475 228.23 36.051 228.915 35.5599C229.601 35.1669 230.189 34.5775 230.58 33.7917C230.972 33.0058 231.168 32.1217 231.168 31.1394C231.168 30.1571 230.972 29.273 230.58 28.4871C230.189 27.7013 229.601 27.1119 228.915 26.7189C228.23 26.326 227.446 26.1295 226.662 26.1295C225.879 26.1295 225.095 26.326 224.409 26.7189C223.724 27.1119 223.136 27.7013 222.744 28.4871C222.352 29.273 222.157 30.1571 222.157 31.1394C222.157 32.1217 222.352 33.0058 222.744 33.7917C223.136 34.5775 223.724 35.1669 224.409 35.5599C225.095 36.051 225.879 36.2475 226.662 36.2475Z" fill="url(#paint16_linear_122_21)"></path>
    <path d="M115.289 45.5803V18.4681H126.26V21.0221C127.827 19.7451 129.198 18.861 130.374 18.3698C131.549 17.8787 132.822 17.584 134.194 17.584C136.153 17.584 138.014 17.9769 139.679 18.861C141.344 19.7451 142.618 20.9239 143.401 22.2991C144.87 20.6292 146.34 19.4504 147.809 18.6645C149.278 17.8787 150.845 17.584 152.609 17.584C154.568 17.584 156.331 17.9769 157.898 18.861C159.465 19.6469 160.641 20.8257 161.522 22.2991C162.404 23.7726 162.795 25.5408 162.795 27.4072V45.5803H151.825V30.4524C151.825 29.1754 151.531 28.1931 150.845 27.4072C150.16 26.7196 149.278 26.3267 148.103 26.3267C147.319 26.3267 146.731 26.4249 146.144 26.7196C145.654 27.0143 145.164 27.4072 144.87 27.9966C144.577 28.586 144.479 29.1754 144.479 29.9613V45.5803H133.508V30.4524C133.508 29.2737 133.214 28.2913 132.529 27.5055C131.941 26.7196 130.961 26.4249 129.786 26.4249C129.002 26.4249 128.415 26.6214 127.827 26.9161C127.337 27.2108 126.847 27.7019 126.553 28.2913C126.26 28.8807 126.162 29.6666 126.162 30.4524V45.6785H115.289V45.5803Z" fill="url(#paint17_linear_122_21)"></path>
    <path d="M181.309 45.5796C178.273 45.5796 175.628 44.9902 173.277 43.7132C170.926 42.4361 168.967 40.668 167.596 38.5068C166.225 36.3457 165.539 33.8899 165.539 31.1394C165.539 29.0765 165.931 27.2101 166.714 25.4419C167.498 23.6737 168.576 22.2002 170.045 20.825C171.416 19.548 173.081 18.4674 175.04 17.7798C176.901 17.0921 178.958 16.6992 181.211 16.6992C184.052 16.6992 186.501 17.2886 188.656 18.4674C190.811 19.6462 192.476 21.3161 193.651 23.379C194.827 25.4419 195.414 27.8977 195.414 30.6482C195.414 30.8447 195.414 31.1394 195.414 31.3359C195.414 31.5323 195.414 32.0235 195.316 32.7111H176.999C176.999 33.5952 177.195 34.2828 177.587 34.9705C177.979 35.5599 178.567 36.051 179.35 36.444C180.134 36.7387 181.015 36.9351 182.093 36.9351C183.072 36.9351 183.954 36.7387 184.64 36.444C185.325 36.051 186.207 35.4616 187.186 34.5775L195.022 38.5068C193.749 40.7662 191.888 42.5344 189.537 43.8114C186.99 44.9902 184.346 45.5796 181.309 45.5796ZM177.195 27.5048H184.64C184.542 26.8172 184.346 26.2278 184.052 25.7366C183.758 25.2455 183.366 24.9508 182.779 24.6561C182.289 24.4596 181.603 24.2631 180.917 24.2631C180.134 24.2631 179.448 24.3614 178.958 24.6561C178.469 24.9508 177.979 25.2455 177.685 25.7366C177.391 26.2278 177.195 26.8172 177.195 27.5048Z" fill="url(#paint18_linear_122_21)"></path>
    <path d="M198.449 45.5799V0H209.42V45.5799H198.449Z" fill="url(#paint19_linear_122_21)"></path>
    <path d="M51.5234 45.5797V1.86621H68.7629C71.6035 1.86621 74.1502 2.35737 76.4031 3.3397C78.656 4.32202 80.5171 5.79551 81.8884 7.8584C83.2597 9.92128 83.9454 12.4753 83.9454 15.6188C83.9454 18.7622 83.2597 21.4145 81.8884 23.4774C80.5171 25.6385 78.7539 27.2102 76.4031 28.2908C74.1502 29.3713 71.5055 29.9607 68.7629 29.9607H63.1797V45.5797H51.5234ZM63.1797 20.8251H64.9428C66.0203 20.8251 66.9998 20.7269 68.0772 20.4322C69.1547 20.2357 69.9383 19.7445 70.624 19.0569C71.3096 18.3693 71.7014 17.387 71.7014 16.0117C71.7014 14.6364 71.3096 13.5559 70.624 12.8683C69.9383 12.1806 69.0567 11.6895 68.0772 11.493C66.9998 11.2965 66.0203 11.1001 64.9428 11.1001H63.1797V20.8251Z" fill="url(#paint20_linear_122_21)"></path>
    <path d="M97.1702 45.5796C94.3296 45.5796 91.7828 44.9902 89.5299 43.7132C87.2771 42.4361 85.5139 40.7662 84.1426 38.6051C82.8693 36.444 82.1836 33.9881 82.1836 31.1394C82.1836 28.2907 82.8693 25.8348 84.1426 23.6737C85.416 21.5126 87.2771 19.8427 89.5299 18.5656C91.7828 17.2886 94.3296 16.6992 97.1702 16.6992C100.011 16.6992 102.557 17.2886 104.81 18.5656C107.063 19.8427 108.826 21.5126 110.198 23.6737C111.471 25.8348 112.157 28.2907 112.157 31.1394C112.157 33.9881 111.471 36.444 110.198 38.6051C108.924 40.7662 107.063 42.4361 104.81 43.7132C102.557 44.9902 100.011 45.5796 97.1702 45.5796ZM97.1702 36.2475C97.9538 36.2475 98.7374 36.051 99.423 35.5599C100.109 35.0687 100.696 34.5775 101.088 33.7917C101.48 33.0058 101.676 32.1217 101.676 31.1394C101.676 30.1571 101.48 29.273 101.088 28.4871C100.696 27.7013 100.109 27.1119 99.423 26.7189C98.7374 26.326 97.9538 26.1295 97.1702 26.1295C96.3865 26.1295 95.6029 26.326 94.9173 26.7189C94.2316 27.1119 93.6439 27.7013 93.2521 28.4871C92.8603 29.273 92.6644 30.1571 92.6644 31.1394C92.6644 32.1217 92.8603 33.0058 93.2521 33.7917C93.6439 34.5775 94.2316 35.1669 94.9173 35.5599C95.6029 35.9528 96.3865 36.2475 97.1702 36.2475Z" fill="url(#paint21_linear_122_21)"></path>
    <path d="M226.662 45.5796C223.822 45.5796 221.275 44.9902 219.022 43.7132C216.769 42.4361 215.006 40.7662 213.635 38.6051C212.361 36.444 211.676 33.9881 211.676 31.1394C211.676 28.2907 212.361 25.8348 213.635 23.6737C214.908 21.5126 216.769 19.8427 219.022 18.5656C221.275 17.2886 223.822 16.6992 226.662 16.6992C229.503 16.6992 232.05 17.2886 234.303 18.5656C236.555 19.8427 238.319 21.5126 239.69 23.6737C240.963 25.8348 241.649 28.2907 241.649 31.1394C241.649 33.9881 240.963 36.444 239.69 38.6051C238.417 40.7662 236.555 42.4361 234.303 43.7132C231.952 44.9902 229.503 45.5796 226.662 45.5796ZM226.662 36.2475C227.446 36.2475 228.23 36.051 228.915 35.5599C229.601 35.1669 230.189 34.5775 230.58 33.7917C230.972 33.0058 231.168 32.1217 231.168 31.1394C231.168 30.1571 230.972 29.273 230.58 28.4871C230.189 27.7013 229.601 27.1119 228.915 26.7189C228.23 26.326 227.446 26.1295 226.662 26.1295C225.879 26.1295 225.095 26.326 224.409 26.7189C223.724 27.1119 223.136 27.7013 222.744 28.4871C222.352 29.273 222.157 30.1571 222.157 31.1394C222.157 32.1217 222.352 33.0058 222.744 33.7917C223.136 34.5775 223.724 35.1669 224.409 35.5599C225.095 36.051 225.879 36.2475 226.662 36.2475Z" fill="url(#paint22_linear_122_21)"></path>
    <path d="M115.289 45.5803V18.4681H126.26V21.0221C127.827 19.7451 129.198 18.861 130.374 18.3698C131.549 17.8787 132.822 17.584 134.194 17.584C136.153 17.584 138.014 17.9769 139.679 18.861C141.344 19.7451 142.618 20.9239 143.401 22.2991C144.87 20.6292 146.34 19.4504 147.809 18.6645C149.278 17.8787 150.845 17.584 152.609 17.584C154.568 17.584 156.331 17.9769 157.898 18.861C159.465 19.6469 160.641 20.8257 161.522 22.2991C162.404 23.7726 162.795 25.5408 162.795 27.4072V45.5803H151.825V30.4524C151.825 29.1754 151.531 28.1931 150.845 27.4072C150.16 26.7196 149.278 26.3267 148.103 26.3267C147.319 26.3267 146.731 26.4249 146.144 26.7196C145.654 27.0143 145.164 27.4072 144.87 27.9966C144.577 28.586 144.479 29.1754 144.479 29.9613V45.5803H133.508V30.4524C133.508 29.2737 133.214 28.2913 132.529 27.5055C131.941 26.7196 130.961 26.4249 129.786 26.4249C129.002 26.4249 128.415 26.6214 127.827 26.9161C127.337 27.2108 126.847 27.7019 126.553 28.2913C126.26 28.8807 126.162 29.6666 126.162 30.4524V45.6785H115.289V45.5803Z" fill="url(#paint23_linear_122_21)"></path>
    <path d="M181.309 45.5796C178.273 45.5796 175.628 44.9902 173.277 43.7132C170.926 42.4361 168.967 40.668 167.596 38.5068C166.225 36.3457 165.539 33.8899 165.539 31.1394C165.539 29.0765 165.931 27.2101 166.714 25.4419C167.498 23.6737 168.576 22.2002 170.045 20.825C171.416 19.548 173.081 18.4674 175.04 17.7798C176.901 17.0921 178.958 16.6992 181.211 16.6992C184.052 16.6992 186.501 17.2886 188.656 18.4674C190.811 19.6462 192.476 21.3161 193.651 23.379C194.827 25.4419 195.414 27.8977 195.414 30.6482C195.414 30.8447 195.414 31.1394 195.414 31.3359C195.414 31.5323 195.414 32.0235 195.316 32.7111H176.999C176.999 33.5952 177.195 34.2828 177.587 34.9705C177.979 35.5599 178.567 36.051 179.35 36.444C180.134 36.7387 181.015 36.9351 182.093 36.9351C183.072 36.9351 183.954 36.7387 184.64 36.444C185.325 36.051 186.207 35.4616 187.186 34.5775L195.022 38.5068C193.749 40.7662 191.888 42.5344 189.537 43.8114C186.99 44.9902 184.346 45.5796 181.309 45.5796ZM177.195 27.5048H184.64C184.542 26.8172 184.346 26.2278 184.052 25.7366C183.758 25.2455 183.366 24.9508 182.779 24.6561C182.289 24.4596 181.603 24.2631 180.917 24.2631C180.134 24.2631 179.448 24.3614 178.958 24.6561C178.469 24.9508 177.979 25.2455 177.685 25.7366C177.391 26.2278 177.195 26.8172 177.195 27.5048Z" fill="url(#paint24_linear_122_21)"></path>
    <path d="M198.449 45.5799V0H209.42V45.5799H198.449Z" fill="url(#paint25_linear_122_21)"></path>
    <path d="M51.5234 45.5797V1.86621H68.7629C71.6035 1.86621 74.1502 2.35737 76.4031 3.3397C78.656 4.32202 80.5171 5.79551 81.8884 7.8584C83.2597 9.92128 83.9454 12.4753 83.9454 15.6188C83.9454 18.7622 83.2597 21.4145 81.8884 23.4774C80.5171 25.6385 78.7539 27.2102 76.4031 28.2908C74.1502 29.3713 71.5055 29.9607 68.7629 29.9607H63.1797V45.5797H51.5234ZM63.1797 20.8251H64.9428C66.0203 20.8251 66.9998 20.7269 68.0772 20.4322C69.1547 20.2357 69.9383 19.7445 70.624 19.0569C71.3096 18.3693 71.7014 17.387 71.7014 16.0117C71.7014 14.6364 71.3096 13.5559 70.624 12.8683C69.9383 12.1806 69.0567 11.6895 68.0772 11.493C66.9998 11.2965 66.0203 11.1001 64.9428 11.1001H63.1797V20.8251Z" fill="url(#paint26_linear_122_21)"></path>
    <path d="M97.1702 45.5796C94.3296 45.5796 91.7828 44.9902 89.5299 43.7132C87.2771 42.4361 85.5139 40.7662 84.1426 38.6051C82.8693 36.444 82.1836 33.9881 82.1836 31.1394C82.1836 28.2907 82.8693 25.8348 84.1426 23.6737C85.416 21.5126 87.2771 19.8427 89.5299 18.5656C91.7828 17.2886 94.3296 16.6992 97.1702 16.6992C100.011 16.6992 102.557 17.2886 104.81 18.5656C107.063 19.8427 108.826 21.5126 110.198 23.6737C111.471 25.8348 112.157 28.2907 112.157 31.1394C112.157 33.9881 111.471 36.444 110.198 38.6051C108.924 40.7662 107.063 42.4361 104.81 43.7132C102.557 44.9902 100.011 45.5796 97.1702 45.5796ZM97.1702 36.2475C97.9538 36.2475 98.7374 36.051 99.423 35.5599C100.109 35.0687 100.696 34.5775 101.088 33.7917C101.48 33.0058 101.676 32.1217 101.676 31.1394C101.676 30.1571 101.48 29.273 101.088 28.4871C100.696 27.7013 100.109 27.1119 99.423 26.7189C98.7374 26.326 97.9538 26.1295 97.1702 26.1295C96.3865 26.1295 95.6029 26.326 94.9173 26.7189C94.2316 27.1119 93.6439 27.7013 93.2521 28.4871C92.8603 29.273 92.6644 30.1571 92.6644 31.1394C92.6644 32.1217 92.8603 33.0058 93.2521 33.7917C93.6439 34.5775 94.2316 35.1669 94.9173 35.5599C95.6029 35.9528 96.3865 36.2475 97.1702 36.2475Z" fill="url(#paint27_linear_122_21)"></path>
    <path d="M226.662 45.5796C223.822 45.5796 221.275 44.9902 219.022 43.7132C216.769 42.4361 215.006 40.7662 213.635 38.6051C212.361 36.444 211.676 33.9881 211.676 31.1394C211.676 28.2907 212.361 25.8348 213.635 23.6737C214.908 21.5126 216.769 19.8427 219.022 18.5656C221.275 17.2886 223.822 16.6992 226.662 16.6992C229.503 16.6992 232.05 17.2886 234.303 18.5656C236.555 19.8427 238.319 21.5126 239.69 23.6737C240.963 25.8348 241.649 28.2907 241.649 31.1394C241.649 33.9881 240.963 36.444 239.69 38.6051C238.417 40.7662 236.555 42.4361 234.303 43.7132C231.952 44.9902 229.503 45.5796 226.662 45.5796ZM226.662 36.2475C227.446 36.2475 228.23 36.051 228.915 35.5599C229.601 35.1669 230.189 34.5775 230.58 33.7917C230.972 33.0058 231.168 32.1217 231.168 31.1394C231.168 30.1571 230.972 29.273 230.58 28.4871C230.189 27.7013 229.601 27.1119 228.915 26.7189C228.23 26.326 227.446 26.1295 226.662 26.1295C225.879 26.1295 225.095 26.326 224.409 26.7189C223.724 27.1119 223.136 27.7013 222.744 28.4871C222.352 29.273 222.157 30.1571 222.157 31.1394C222.157 32.1217 222.352 33.0058 222.744 33.7917C223.136 34.5775 223.724 35.1669 224.409 35.5599C225.095 36.051 225.879 36.2475 226.662 36.2475Z" fill="url(#paint28_linear_122_21)"></path>
    <path d="M115.289 45.5803V18.4681H126.26V21.0221C127.827 19.7451 129.198 18.861 130.374 18.3698C131.549 17.8787 132.822 17.584 134.194 17.584C136.153 17.584 138.014 17.9769 139.679 18.861C141.344 19.7451 142.618 20.9239 143.401 22.2991C144.87 20.6292 146.34 19.4504 147.809 18.6645C149.278 17.8787 150.845 17.584 152.609 17.584C154.568 17.584 156.331 17.9769 157.898 18.861C159.465 19.6469 160.641 20.8257 161.522 22.2991C162.404 23.7726 162.795 25.5408 162.795 27.4072V45.5803H151.825V30.4524C151.825 29.1754 151.531 28.1931 150.845 27.4072C150.16 26.7196 149.278 26.3267 148.103 26.3267C147.319 26.3267 146.731 26.4249 146.144 26.7196C145.654 27.0143 145.164 27.4072 144.87 27.9966C144.577 28.586 144.479 29.1754 144.479 29.9613V45.5803H133.508V30.4524C133.508 29.2737 133.214 28.2913 132.529 27.5055C131.941 26.7196 130.961 26.4249 129.786 26.4249C129.002 26.4249 128.415 26.6214 127.827 26.9161C127.337 27.2108 126.847 27.7019 126.553 28.2913C126.26 28.8807 126.162 29.6666 126.162 30.4524V45.6785H115.289V45.5803Z" fill="url(#paint29_linear_122_21)"></path>
    <path d="M181.309 45.5796C178.273 45.5796 175.628 44.9902 173.277 43.7132C170.926 42.4361 168.967 40.668 167.596 38.5068C166.225 36.3457 165.539 33.8899 165.539 31.1394C165.539 29.0765 165.931 27.2101 166.714 25.4419C167.498 23.6737 168.576 22.2002 170.045 20.825C171.416 19.548 173.081 18.4674 175.04 17.7798C176.901 17.0921 178.958 16.6992 181.211 16.6992C184.052 16.6992 186.501 17.2886 188.656 18.4674C190.811 19.6462 192.476 21.3161 193.651 23.379C194.827 25.4419 195.414 27.8977 195.414 30.6482C195.414 30.8447 195.414 31.1394 195.414 31.3359C195.414 31.5323 195.414 32.0235 195.316 32.7111H176.999C176.999 33.5952 177.195 34.2828 177.587 34.9705C177.979 35.5599 178.567 36.051 179.35 36.444C180.134 36.7387 181.015 36.9351 182.093 36.9351C183.072 36.9351 183.954 36.7387 184.64 36.444C185.325 36.051 186.207 35.4616 187.186 34.5775L195.022 38.5068C193.749 40.7662 191.888 42.5344 189.537 43.8114C186.99 44.9902 184.346 45.5796 181.309 45.5796ZM177.195 27.5048H184.64C184.542 26.8172 184.346 26.2278 184.052 25.7366C183.758 25.2455 183.366 24.9508 182.779 24.6561C182.289 24.4596 181.603 24.2631 180.917 24.2631C180.134 24.2631 179.448 24.3614 178.958 24.6561C178.469 24.9508 177.979 25.2455 177.685 25.7366C177.391 26.2278 177.195 26.8172 177.195 27.5048Z" fill="url(#paint30_linear_122_21)"></path>
    <path d="M198.449 45.5799V0H209.42V45.5799H198.449Z" fill="url(#paint31_linear_122_21)"></path>
  </g>
  <path d="M166.537 71.4836L158.84 56.0889H162.311L167.594 67.5595L172.876 56.0889H176.348L168.65 71.4836H166.537Z" fill="black"></path>
  <path d="M180.12 52.9192C179.818 52.9192 179.516 52.7682 179.214 52.6173C178.912 52.4664 178.761 52.1645 178.61 52.0136C178.46 51.7117 178.309 51.4099 178.309 51.108C178.309 50.8062 178.46 50.5043 178.61 50.2025C178.761 49.9006 179.063 49.7497 179.214 49.5987C179.516 49.4478 179.818 49.2969 180.12 49.2969C180.422 49.2969 180.723 49.4478 181.025 49.5987C181.327 49.7497 181.478 50.0515 181.629 50.2025C181.78 50.5043 181.931 50.8062 181.931 51.108C181.931 51.4099 181.78 51.7117 181.629 52.0136C181.478 52.3155 181.176 52.4664 181.025 52.6173C180.874 52.7682 180.422 52.9192 180.12 52.9192ZM178.61 71.4834V56.0887H181.478V71.4834H178.61Z" fill="black"></path>
  <path d="M190.687 71.9356C189.329 71.9356 188.272 71.6338 187.216 71.03C186.159 70.4263 185.404 69.6717 184.801 68.6152L186.159 66.804C186.763 67.7096 187.367 68.4643 188.121 68.917C188.876 69.3698 189.631 69.6717 190.536 69.6717C191.14 69.6717 191.593 69.5208 192.045 69.3698C192.498 69.2189 192.8 68.7661 193.102 68.4643C193.404 68.0115 193.555 67.5587 193.555 66.955C193.555 66.3513 193.404 65.8985 193.102 65.5966C192.8 65.2948 192.347 64.9929 191.894 64.691C191.291 64.3892 190.687 64.2382 189.932 63.9364C189.329 63.6345 188.725 63.3327 188.121 63.0308C187.518 62.729 187.065 62.2762 186.612 61.8234C186.159 61.3706 186.008 60.616 186.008 59.8613C186.008 58.9557 186.31 58.2011 186.763 57.5974C187.216 56.9937 187.819 56.3899 188.725 56.0881C189.48 55.7862 190.385 55.4844 191.442 55.4844C192.347 55.4844 193.102 55.6353 193.857 55.9372C194.611 56.239 195.366 56.6918 196.12 57.4464L194.913 59.2576C193.857 58.2011 192.649 57.5974 191.442 57.5974C190.687 57.5974 190.083 57.7483 189.631 58.2011C189.178 58.6539 188.876 59.1067 188.876 59.7104C188.876 60.1632 189.027 60.616 189.329 60.9178C189.631 61.2197 190.083 61.5215 190.687 61.6725C191.291 61.8234 191.744 62.1252 192.347 62.4271C193.253 62.729 194.007 63.0308 194.611 63.4836C195.215 63.7855 195.819 64.2383 196.12 64.842C196.422 65.4457 196.724 66.0494 196.724 66.955C196.724 68.0115 196.422 68.917 195.97 69.6717C195.517 70.4263 194.762 71.0301 193.857 71.4828C192.951 71.7847 191.894 71.9356 190.687 71.9356Z" fill="black"></path>
  <path d="M207.138 71.936C204.723 71.936 202.912 71.3322 201.856 70.2757C200.799 69.2192 200.195 67.4081 200.195 64.9932V55.9375H203.063V64.3895C203.063 66.2007 203.365 67.559 203.969 68.3137C204.572 69.0683 205.629 69.5211 207.138 69.5211C208.647 69.5211 209.704 69.0683 210.308 68.3137C210.911 67.559 211.213 66.2007 211.213 64.3895V55.9375H214.081V64.9932C214.081 67.559 213.477 69.2192 212.421 70.2757C211.364 71.4832 209.553 71.936 207.138 71.936Z" fill="black"></path>
  <path d="M225.248 71.9361C223.739 71.9361 222.531 71.6342 221.324 70.8796C220.117 70.1249 219.211 69.2193 218.607 68.0119C218.004 66.8045 217.551 65.2952 217.551 63.7859C217.551 62.2766 217.853 60.7673 218.607 59.5599C219.211 58.3525 220.117 57.296 221.324 56.6922C222.531 55.9376 223.739 55.6357 225.248 55.6357C226.606 55.6357 227.814 55.9376 228.87 56.5413C229.927 57.145 230.833 57.8997 231.436 58.9562V56.0885H234.304V71.4833H231.436V68.6156C230.833 69.6721 229.927 70.5777 228.87 71.0305C227.814 71.4833 226.456 71.9361 225.248 71.9361ZM226.003 69.3703C227.059 69.3703 227.965 69.0684 228.87 68.6156C229.625 68.1628 230.38 67.4082 230.833 66.6535C231.285 65.8989 231.587 64.8424 231.587 63.635C231.587 62.4275 231.285 61.522 230.833 60.7673C230.38 59.8618 229.776 59.258 228.87 58.8053C228.116 58.3525 227.059 58.0506 226.003 58.0506C224.946 58.0506 224.041 58.3525 223.135 58.8053C222.381 59.258 221.626 60.0127 221.173 60.7673C220.72 61.6729 220.418 62.5785 220.418 63.635C220.418 64.6915 220.72 65.748 221.173 66.5026C221.626 67.4082 222.23 68.0119 223.135 68.4647C224.041 68.9175 224.946 69.3703 226.003 69.3703Z" fill="black"></path>
  <path d="M239.133 71.4832V45.5234H242V71.4832H239.133Z" fill="black"></path>
  <defs>
    <linearGradient id="paint0_linear_122_21" x1="3.73402" y1="24.5934" x2="40.8427" y2="24.5934" gradientUnits="userSpaceOnUse">
      <stop stop-color="#FDC800"></stop>
      <stop offset="1" stop-color="#FFEB38"></stop>
    </linearGradient>
    <linearGradient id="paint1_linear_122_21" x1="0" y1="24.5936" x2="44.576" y2="24.5936" gradientUnits="userSpaceOnUse">
      <stop stop-color="#FDC800"></stop>
      <stop offset="1" stop-color="#FFEB38"></stop>
    </linearGradient>
    <linearGradient id="paint2_linear_122_21" x1="51.5151" y1="23.7377" x2="83.9391" y2="23.7377" gradientUnits="userSpaceOnUse">
      <stop stop-color="#FDC800"></stop>
      <stop offset="1" stop-color="#FFEB38"></stop>
    </linearGradient>
    <linearGradient id="paint3_linear_122_21" x1="82.2548" y1="31.1905" x2="112.126" y2="31.1905" gradientUnits="userSpaceOnUse">
      <stop stop-color="#FDC800"></stop>
      <stop offset="1" stop-color="#FFEB38"></stop>
    </linearGradient>
    <linearGradient id="paint4_linear_122_21" x1="211.717" y1="31.1905" x2="241.589" y2="31.1905" gradientUnits="userSpaceOnUse">
      <stop stop-color="#FDC800"></stop>
      <stop offset="1" stop-color="#FFEB38"></stop>
    </linearGradient>
    <linearGradient id="paint5_linear_122_21" x1="115.282" y1="31.6153" x2="162.886" y2="31.6153" gradientUnits="userSpaceOnUse">
      <stop stop-color="#FDC800"></stop>
      <stop offset="1" stop-color="#FFEB38"></stop>
    </linearGradient>
    <linearGradient id="paint6_linear_122_21" x1="165.502" y1="31.1905" x2="195.334" y2="31.1905" gradientUnits="userSpaceOnUse">
      <stop stop-color="#FDC800"></stop>
      <stop offset="1" stop-color="#FFEB38"></stop>
    </linearGradient>
    <linearGradient id="paint7_linear_122_21" x1="198.454" y1="22.8096" x2="209.455" y2="22.8096" gradientUnits="userSpaceOnUse">
      <stop stop-color="#FDC800"></stop>
      <stop offset="1" stop-color="#FFEB38"></stop>
    </linearGradient>
    <linearGradient id="paint8_linear_122_21" x1="0.000502925" y1="23.4727" x2="241.587" y2="23.4727" gradientUnits="userSpaceOnUse">
      <stop stop-color="#FDC800"></stop>
      <stop offset="1" stop-color="#FFEB38"></stop>
    </linearGradient>
    <linearGradient id="paint9_linear_122_21" x1="0" y1="23.4731" x2="241.586" y2="23.4731" gradientUnits="userSpaceOnUse">
      <stop stop-color="#FDC800"></stop>
      <stop offset="1" stop-color="#FFEB38"></stop>
    </linearGradient>
    <linearGradient id="paint10_linear_122_21" x1="0.000502925" y1="23.4727" x2="241.587" y2="23.4727" gradientUnits="userSpaceOnUse">
      <stop stop-color="#FDC800"></stop>
      <stop offset="1" stop-color="#FFEB38"></stop>
    </linearGradient>
    <linearGradient id="paint11_linear_122_21" x1="0" y1="23.4731" x2="241.586" y2="23.4731" gradientUnits="userSpaceOnUse">
      <stop stop-color="#FDC800"></stop>
      <stop offset="1" stop-color="#FFEB38"></stop>
    </linearGradient>
    <linearGradient id="paint12_linear_122_21" x1="0.000502925" y1="23.4727" x2="241.587" y2="23.4727" gradientUnits="userSpaceOnUse">
      <stop stop-color="#FDC800"></stop>
      <stop offset="1" stop-color="#FFEB38"></stop>
    </linearGradient>
    <linearGradient id="paint13_linear_122_21" x1="0" y1="23.4731" x2="241.586" y2="23.4731" gradientUnits="userSpaceOnUse">
      <stop stop-color="#FDC800"></stop>
      <stop offset="1" stop-color="#FFEB38"></stop>
    </linearGradient>
    <linearGradient id="paint14_linear_122_21" x1="0.00100317" y1="23.4725" x2="241.587" y2="23.4725" gradientUnits="userSpaceOnUse">
      <stop stop-color="#FDC800"></stop>
      <stop offset="1" stop-color="#FFEB38"></stop>
    </linearGradient>
    <linearGradient id="paint15_linear_122_21" x1="0.0023727" y1="23.4724" x2="241.589" y2="23.4724" gradientUnits="userSpaceOnUse">
      <stop stop-color="#FDC800"></stop>
      <stop offset="1" stop-color="#FFEB38"></stop>
    </linearGradient>
    <linearGradient id="paint16_linear_122_21" x1="0.00287621" y1="23.4724" x2="241.589" y2="23.4724" gradientUnits="userSpaceOnUse">
      <stop stop-color="#FDC800"></stop>
      <stop offset="1" stop-color="#FFEB38"></stop>
    </linearGradient>
    <linearGradient id="paint17_linear_122_21" x1="0.000274266" y1="23.473" x2="241.586" y2="23.473" gradientUnits="userSpaceOnUse">
      <stop stop-color="#FDC800"></stop>
      <stop offset="1" stop-color="#FFEB38"></stop>
    </linearGradient>
    <linearGradient id="paint18_linear_122_21" x1="0.00118428" y1="23.4724" x2="241.587" y2="23.4724" gradientUnits="userSpaceOnUse">
      <stop stop-color="#FDC800"></stop>
      <stop offset="1" stop-color="#FFEB38"></stop>
    </linearGradient>
    <linearGradient id="paint19_linear_122_21" x1="-0.000270825" y1="23.4727" x2="241.586" y2="23.4727" gradientUnits="userSpaceOnUse">
      <stop stop-color="#FDC800"></stop>
      <stop offset="1" stop-color="#FFEB38"></stop>
    </linearGradient>
    <linearGradient id="paint20_linear_122_21" x1="0.00100317" y1="23.4725" x2="241.587" y2="23.4725" gradientUnits="userSpaceOnUse">
      <stop stop-color="#FDC800"></stop>
      <stop offset="1" stop-color="#FFEB38"></stop>
    </linearGradient>
    <linearGradient id="paint21_linear_122_21" x1="0.0023727" y1="23.4724" x2="241.589" y2="23.4724" gradientUnits="userSpaceOnUse">
      <stop stop-color="#FDC800"></stop>
      <stop offset="1" stop-color="#FFEB38"></stop>
    </linearGradient>
    <linearGradient id="paint22_linear_122_21" x1="0.00287621" y1="23.4724" x2="241.589" y2="23.4724" gradientUnits="userSpaceOnUse">
      <stop stop-color="#FDC800"></stop>
      <stop offset="1" stop-color="#FFEB38"></stop>
    </linearGradient>
    <linearGradient id="paint23_linear_122_21" x1="0.000274266" y1="23.473" x2="241.586" y2="23.473" gradientUnits="userSpaceOnUse">
      <stop stop-color="#FDC800"></stop>
      <stop offset="1" stop-color="#FFEB38"></stop>
    </linearGradient>
    <linearGradient id="paint24_linear_122_21" x1="0.00118428" y1="23.4724" x2="241.587" y2="23.4724" gradientUnits="userSpaceOnUse">
      <stop stop-color="#FDC800"></stop>
      <stop offset="1" stop-color="#FFEB38"></stop>
    </linearGradient>
    <linearGradient id="paint25_linear_122_21" x1="-0.000270825" y1="23.4727" x2="241.586" y2="23.4727" gradientUnits="userSpaceOnUse">
      <stop stop-color="#FDC800"></stop>
      <stop offset="1" stop-color="#FFEB38"></stop>
    </linearGradient>
    <linearGradient id="paint26_linear_122_21" x1="0.00100317" y1="23.4725" x2="241.587" y2="23.4725" gradientUnits="userSpaceOnUse">
      <stop stop-color="#FDC800"></stop>
      <stop offset="1" stop-color="#FFEB38"></stop>
    </linearGradient>
    <linearGradient id="paint27_linear_122_21" x1="0.0023727" y1="23.4724" x2="241.589" y2="23.4724" gradientUnits="userSpaceOnUse">
      <stop stop-color="#FDC800"></stop>
      <stop offset="1" stop-color="#FFEB38"></stop>
    </linearGradient>
    <linearGradient id="paint28_linear_122_21" x1="0.00287621" y1="23.4724" x2="241.589" y2="23.4724" gradientUnits="userSpaceOnUse">
      <stop stop-color="#FDC800"></stop>
      <stop offset="1" stop-color="#FFEB38"></stop>
    </linearGradient>
    <linearGradient id="paint29_linear_122_21" x1="0.000274266" y1="23.473" x2="241.586" y2="23.473" gradientUnits="userSpaceOnUse">
      <stop stop-color="#FDC800"></stop>
      <stop offset="1" stop-color="#FFEB38"></stop>
    </linearGradient>
    <linearGradient id="paint30_linear_122_21" x1="0.00118428" y1="23.4724" x2="241.587" y2="23.4724" gradientUnits="userSpaceOnUse">
      <stop stop-color="#FDC800"></stop>
      <stop offset="1" stop-color="#FFEB38"></stop>
    </linearGradient>
    <linearGradient id="paint31_linear_122_21" x1="-0.000270825" y1="23.4727" x2="241.586" y2="23.4727" gradientUnits="userSpaceOnUse">
      <stop stop-color="#FDC800"></stop>
      <stop offset="1" stop-color="#FFEB38"></stop>
    </linearGradient>
    <clipPath id="clip0_122_21">
      <rect width="241.548" height="46.9552" fill="white"></rect>
    </clipPath>
  </defs>
</svg>
