<svg width="45" height="45" viewBox="0 0 45 45" fill="none" xmlns="http://www.w3.org/2000/svg">
<path d="M22.2409 3.99219C11.9985 3.99219 3.70703 12.342 3.70703 22.5581C3.70703 32.7743 11.9985 41.2223 22.2409 41.2223C32.4833 41.2223 40.6772 32.8726 40.6772 22.5581C40.6772 12.2437 32.3857 3.99219 22.2409 3.99219ZM10.4377 14.6995L16.5832 20.8882H8.19418C8.48682 18.5306 9.26719 16.4677 10.4377 14.6995ZM8.29172 25.2104H16.193L14.3396 27.0768L10.6328 30.8097C9.46228 29.1397 8.68191 27.2733 8.29172 25.2104ZM19.6071 36.6054C17.3636 36.2125 15.3151 35.2301 13.6568 33.9531L14.2421 33.3637L18.4366 29.1397L19.412 28.1574L19.6071 27.9609V36.6054ZM19.6071 17.7447L13.3641 11.4579C15.12 10.0826 17.266 9.00205 19.6071 8.60912V17.7447ZM23.9967 8.51088C30.3373 9.29675 35.4097 14.4048 36.2876 20.8882H23.9967V8.51088ZM23.9967 36.7036V28.2556L30.1422 34.4443C28.2888 35.6231 26.2403 36.4089 23.9967 36.7036ZM33.2637 31.3991L27.0207 25.1122H36.0925C35.7023 27.4698 34.6293 29.6309 33.2637 31.3991Z" fill="url(#paint0_linear_122_38)"/>
<path d="M22.2406 0.259766C9.94976 0.259766 0 10.2795 0 22.5586C0 34.8376 9.94976 44.9556 22.2406 44.9556C34.434 44.9556 44.4813 34.9359 44.4813 22.5586C44.3837 10.2795 34.434 0.259766 22.2406 0.259766ZM22.2406 42.598C11.2179 42.598 2.34112 33.6588 2.34112 22.5586C2.34112 11.5565 11.3154 2.51911 22.2406 2.51911C33.1659 2.51911 42.1401 11.5565 42.1401 22.5586C42.1401 33.6588 33.1659 42.598 22.2406 42.598Z" fill="url(#paint1_linear_122_38)"/>
<path d="M22.2409 3.99219C11.9985 3.99219 3.70703 12.342 3.70703 22.5581C3.70703 32.7743 11.9985 41.2223 22.2409 41.2223C32.4833 41.2223 40.6772 32.8726 40.6772 22.5581C40.6772 12.2437 32.3857 3.99219 22.2409 3.99219ZM10.4377 14.6995L16.5832 20.8882H8.19418C8.48682 18.5306 9.26719 16.4677 10.4377 14.6995ZM8.29172 25.2104H16.193L14.3396 27.0768L10.6328 30.8097C9.46228 29.1397 8.68191 27.2733 8.29172 25.2104ZM19.6071 36.6054C17.3636 36.2125 15.3151 35.2301 13.6568 33.9531L14.2421 33.3637L18.4366 29.1397L19.412 28.1574L19.6071 27.9609V36.6054ZM19.6071 17.7447L13.3641 11.4579C15.12 10.0826 17.266 9.00205 19.6071 8.60912V17.7447ZM23.9967 8.51088C30.3373 9.29675 35.4097 14.4048 36.2876 20.8882H23.9967V8.51088ZM23.9967 36.7036V28.2556L30.1422 34.4443C28.2888 35.6231 26.2403 36.4089 23.9967 36.7036ZM33.2637 31.3991L27.0207 25.1122H36.0925C35.7023 27.4698 34.6293 29.6309 33.2637 31.3991Z" fill="url(#paint2_linear_122_38)"/>
<path d="M22.2406 0.259766C9.94976 0.259766 0 10.2795 0 22.5586C0 34.8376 9.94976 44.9556 22.2406 44.9556C34.434 44.9556 44.4813 34.9359 44.4813 22.5586C44.3837 10.2795 34.434 0.259766 22.2406 0.259766ZM22.2406 42.598C11.2179 42.598 2.34112 33.6588 2.34112 22.5586C2.34112 11.5565 11.3154 2.51911 22.2406 2.51911C33.1659 2.51911 42.1401 11.5565 42.1401 22.5586C42.1401 33.6588 33.1659 42.598 22.2406 42.598Z" fill="url(#paint3_linear_122_38)"/>
<path d="M22.2409 3.99219C11.9985 3.99219 3.70703 12.342 3.70703 22.5581C3.70703 32.7743 11.9985 41.2223 22.2409 41.2223C32.4833 41.2223 40.6772 32.8726 40.6772 22.5581C40.6772 12.2437 32.3857 3.99219 22.2409 3.99219ZM10.4377 14.6995L16.5832 20.8882H8.19418C8.48682 18.5306 9.26719 16.4677 10.4377 14.6995ZM8.29172 25.2104H16.193L14.3396 27.0768L10.6328 30.8097C9.46228 29.1397 8.68191 27.2733 8.29172 25.2104ZM19.6071 36.6054C17.3636 36.2125 15.3151 35.2301 13.6568 33.9531L14.2421 33.3637L18.4366 29.1397L19.412 28.1574L19.6071 27.9609V36.6054ZM19.6071 17.7447L13.3641 11.4579C15.12 10.0826 17.266 9.00205 19.6071 8.60912V17.7447ZM23.9967 8.51088C30.3373 9.29675 35.4097 14.4048 36.2876 20.8882H23.9967V8.51088ZM23.9967 36.7036V28.2556L30.1422 34.4443C28.2888 35.6231 26.2403 36.4089 23.9967 36.7036ZM33.2637 31.3991L27.0207 25.1122H36.0925C35.7023 27.4698 34.6293 29.6309 33.2637 31.3991Z" fill="url(#paint4_linear_122_38)"/>
<path d="M22.2406 0.259766C9.94976 0.259766 0 10.2795 0 22.5586C0 34.8376 9.94976 44.9556 22.2406 44.9556C34.434 44.9556 44.4813 34.9359 44.4813 22.5586C44.3837 10.2795 34.434 0.259766 22.2406 0.259766ZM22.2406 42.598C11.2179 42.598 2.34112 33.6588 2.34112 22.5586C2.34112 11.5565 11.3154 2.51911 22.2406 2.51911C33.1659 2.51911 42.1401 11.5565 42.1401 22.5586C42.1401 33.6588 33.1659 42.598 22.2406 42.598Z" fill="url(#paint5_linear_122_38)"/>
<defs>
<linearGradient id="paint0_linear_122_38" x1="0.000258825" y1="21.4727" x2="240.588" y2="21.4727" gradientUnits="userSpaceOnUse">
<stop stop-color="#FDC800"/>
<stop offset="1" stop-color="#FFEB38"/>
</linearGradient>
<linearGradient id="paint1_linear_122_38" x1="0" y1="21.4731" x2="240.588" y2="21.4731" gradientUnits="userSpaceOnUse">
<stop stop-color="#FDC800"/>
<stop offset="1" stop-color="#FFEB38"/>
</linearGradient>
<linearGradient id="paint2_linear_122_38" x1="0.000258825" y1="21.4727" x2="240.588" y2="21.4727" gradientUnits="userSpaceOnUse">
<stop stop-color="#FDC800"/>
<stop offset="1" stop-color="#FFEB38"/>
</linearGradient>
<linearGradient id="paint3_linear_122_38" x1="0" y1="21.4731" x2="240.588" y2="21.4731" gradientUnits="userSpaceOnUse">
<stop stop-color="#FDC800"/>
<stop offset="1" stop-color="#FFEB38"/>
</linearGradient>
<linearGradient id="paint4_linear_122_38" x1="0.000258825" y1="21.4727" x2="240.588" y2="21.4727" gradientUnits="userSpaceOnUse">
<stop/>
<stop offset="1" stop-color="#FFEB38"/>
</linearGradient>
<linearGradient id="paint5_linear_122_38" x1="0" y1="21.4731" x2="240.588" y2="21.4731" gradientUnits="userSpaceOnUse">
<stop/>
<stop offset="1" stop-color="#FFEB38"/>
</linearGradient>
</defs>
</svg>
